<?xml version="1.0" encoding="UTF-8"?>
<svg id="Capa_1" data-name="Capa 1" xmlns="http://www.w3.org/2000/svg" viewBox="0 0 285.73 551.97">
  <defs>
    <style>
      .cls-1 {
        fill: #f8ae4c;
      }

      .cls-2 {
        fill: #92d2e4;
      }
    </style>
  </defs>
  <g>
    <path class="cls-1" d="M130.8,87.96v.05c-.23,.02-.47,.03-.7,.05v11.91c3.29-.41,6.62-.65,10-.7,.62-.02,1.24-.03,1.87-.03h7.16c.63,0,1.13,.54,1.13,1.2v37.86c-2.1,.63-4.06,1.6-5.83,2.87-1.62,1.15-3.08,2.54-4.33,4.12-3.06,3.84-4.9,8.81-4.9,14.24v52.19c0,5.43,1.84,10.4,4.9,14.24,1.25,1.58,2.71,2.97,4.33,4.12,1.77,1.27,3.73,2.25,5.83,2.88v20.74c0,.67-.52,1.2-1.15,1.2-1.57-.02-3.13-.06-4.68-.1-1.45-.03-2.9-.08-4.33-.13-3.38-.12-6.72-.28-10-.48v201.48c.23,.06,.47,.11,.7,.16v.14c3.06,.64,6.17,1.17,9.3,1.58,1.44,.18,2.88,.34,4.33,.47,3.3,.31,6.63,.49,10,.53V221.72c-1.52-.13-2.93-.64-4.17-1.43-2.82-1.81-4.72-5.13-4.72-8.9v-51.53c0-3.77,1.9-7.08,4.72-8.89,1.24-.79,2.65-1.3,4.17-1.43v-61.85h-16.22c-2.49,0-4.96,.08-7.41,.27Z"/>
    <path class="cls-1" d="M26.07,207.3v112.78c0,58.41,33.9,108.37,81.86,128.71,3.27,1.4,6.61,2.65,10,3.75V253.28c-3.41-.31-6.74-.66-10-1.05-38.35-4.58-65.81-14.46-69.17-26.16h-.34v-16.38c0-48.27,29.04-89.32,69.51-104.34,3.26-1.21,6.6-2.25,10-3.11v-12.59c-3.39,.65-6.73,1.47-10,2.46-47.22,14.09-81.86,60.33-81.86,115.19Z"/>
    <path class="cls-1" d="M220.84,98.81c-3.25-1.63-6.59-3.08-10-4.35v13.29c.38,.16,.76,.33,1.13,.5v.54c3.04,1.42,6,3.03,8.87,4.76,31.38,18.99,52.54,54.93,52.54,96.14v16.38h-.35c-2.83,9.89-22.89,18.48-52.19,23.67-2.87,.51-5.83,.98-8.87,1.43v.16c-.38,.05-.75,.1-1.13,.15v186.46c0,2.62-.07,5.2-.21,7.74,3.48-1.72,6.88-3.61,10.19-5.65,9.85-6.08,18.89-13.5,26.88-22.03,23.5-25.06,38.03-59.68,38.03-97.92v-112.78c0-48.05-26.57-89.48-64.89-108.49Z"/>
  </g>
  <g>
    <path class="cls-2" d="M40.37,0V15.98c18.53,.97,32.37,2.18,41.51,3.63,9.14,1.46,16.37,4.03,21.69,7.71,5.3,3.68,9.01,9.58,11.12,17.72,2.1,8.14,3.14,20.05,3.14,35.74v8.25c3.77-.75,7.63-1.28,11.54-1.59v-.05c.23-.02,.47-.04,.7-.05v-28.35c0-12.01-1.8-21.26-5.38-27.75-3.58-6.49-10.44-11.58-20.57-15.26h7.79c18.77,0,30.57,4.22,35.39,12.64,4.82,8.43,7.23,24.08,7.23,46.93v11.52h19.25c13.13,0,25.74,2.38,37.46,6.77v-21.78c0-17.62,2.46-30.26,7.41-37.92,4.94-7.65,11.86-12.39,20.76-14.23,8.9-1.84,24.09-3.15,45.59-3.93V0H40.37Z"/>
    <path class="cls-2" d="M156.62,222.14c2.01,0,3.88-.65,5.43-1.75,2.62-1.86,4.34-5.02,4.34-8.62v-51.53c0-3.6-1.72-6.75-4.34-8.62-1.55-1.1-3.42-1.74-5.43-1.74h-.9c-.28,0-.55,0-.82,.04v72.18c.27,.03,.54,.04,.82,.04h.9Z"/>
    <path class="cls-2" d="M210.25,107.13c-12.34-5.49-25.89-8.51-40.11-8.51h-7.19c-.62,0-1.13,.54-1.13,1.2v37.86c8.73,2.62,15.14,11.14,15.14,21.23v52.19c0,6.1-2.34,11.61-6.1,15.61-2.48,2.62-5.57,4.59-9.04,5.63v.41h-5.65c-.83,0-1.5,.68-1.5,1.51v229.75h1v10.96c0,17.04-2.29,30.12-6.86,39.23-4.57,9.1-14.52,16.27-29.84,21.5,8.17-12.79,12.24-27.41,12.24-43.88v-37.47s0,0,0,0V99.35c-4.17,.49-8.25,1.25-12.24,2.27V463.59h0v29.98c0,28.08-7.54,42.13-22.6,42.13-7.18,0-11.74-2.81-13.72-8.43-1.98-5.62-3.21-13.27-3.7-22.95-.74-11.63-5.01-21.07-12.79-28.33-7.78-7.27-17.48-10.9-29.09-10.9s-20.39,3.44-27.07,10.31c-6.66,6.88-10,14.68-10,23.4,0,14.33,7.72,26.77,23.16,37.34,15.45,10.55,35.27,15.83,59.49,15.83,25.7,0,48.43-4.79,68.2-14.38,19.77-9.59,34.97-23.1,45.59-40.54,6.13-10.07,10.49-21.09,13.08-33.04,.83,0,1.5-.68,1.5-1.51v-15.07c.06-.79,.11-1.57,.15-2.37-.05,.03-.1,.05-.15,.07V250.6c.12-.02,.24-.03,.36-.05V108.17c-.37-.19-.75-.37-1.13-.54v-.5ZM40.21,520.44c4.09,4.36,11.93,11.29,23.54,20.78-16.81-3.88-29.65-9.64-38.55-17.29-8.89-7.65-13.34-15.84-13.34-24.55,0-6.59,2.47-12.31,7.41-17.15,4.94-4.84,11.12-7.26,18.53-7.26,11.12,0,19.77,6.2,25.95,18.6-6.67-3.69-13.28-4.56-19.83-2.62-6.55,1.93-9.82,6.2-9.82,12.79s2.04,12.35,6.11,16.7Z"/>
  </g>
</svg>